C:\Users\movea\Dropbox\PhDWork\ExperimentalData\subject2\100\P2S100W03_filtered35.mot
nRows=10
nColumns=28

name C:\Users\movea\Dropbox\PhDWork\ExperimentalData\subject2\100\P2S100W03_filtered35.mot
datacolumns 28
datarows 10
range 1.3300000000 1.3390000000
endheader
time	ground_force_1_vx	ground_force_1_vy	ground_force_1_vz	ground_force_1_px	ground_force_1_py	ground_force_1_pz	ground_moment_1_mx	ground_moment_1_my	ground_moment_1_mz	ground_force_2_vx	ground_force_2_vy	ground_force_2_vz	ground_force_2_px	ground_force_2_py	ground_force_2_pz	ground_moment_2_mx	ground_moment_2_my	ground_moment_2_mz	ground_force_3_vx	ground_force_3_vy	ground_force_3_vz	ground_force_3_px	ground_force_3_py	ground_force_3_pz	ground_moment_3_mx	ground_moment_3_my	ground_moment_3_mz
        1.3300000000	        0.0000000000	        0.0000000000	        0.0000000000	        0.1988394961	        0.0000558755	       -0.3004071324	       -0.0000000000	        0.0000000000	       -0.0000000000	       -9.7227936338	      728.9395782380	      122.2555844387	        0.2029003516	       -0.0000795827	        0.4543649445	     -133.9846888376	       -6.9514921809	       24.5471023118	        3.1208091019	       49.8711720813	       26.9810335638	        0.2076431971	        0.0000770316	        1.3583900146	        5.8994859400	        1.6282023207	       -3.1531581327	
        1.3310000000	        0.0000000000	        0.0000000000	        0.0000000000	        0.1988394961	        0.0000558755	       -0.3004071324	       -0.0000000000	        0.0000000000	       -0.0000000000	       -9.7984624102	      726.1181422910	      123.4502041119	        0.2029003516	       -0.0000795827	        0.4543649445	     -133.5564111484	       -6.9303693151	       24.4343398782	        3.3453352303	       61.9767808073	       32.6935789380	        0.2076431971	        0.0000770316	        1.3583900146	        7.3264240343	        1.9809918869	       -3.8527102886	
        1.3320000000	        0.0000000000	        0.0000000000	       -0.0000000000	        0.1988394961	        0.0000558755	       -0.3004071324	        0.0000000000	       -0.0000000000	        0.0000000000	       -9.8822391487	      723.1962932373	      124.6259868364	        0.2029003516	       -0.0000795827	        0.4543649445	     -133.1041883407	       -6.9115575059	       24.3191042951	        3.4156016985	       74.9394329896	       38.4364374891	        0.2076431971	        0.0000770316	        1.3583900146	        8.8502330106	        2.3425985977	       -4.5796815960	
        1.3330000000	       -0.0000000000	        0.0000000000	       -0.0000000000	        0.1988394961	        0.0000558755	       -0.3004071324	        0.0000000000	       -0.0000000000	        0.0000000000	       -9.9741473212	      720.1685899358	      125.7821193637	        0.2029003516	       -0.0000795827	        0.4543649445	     -132.6272280798	       -6.8945615799	       24.2012286542	        3.2946567188	       88.6387936287	       44.0075845265	        0.2076431971	        0.0000770316	        1.3583900146	       10.4545569700	        2.7034514765	       -5.3218031802	
        1.3340000000	       -0.0000000000	        0.0000000000	       -0.0000000000	        0.1988394961	        0.0000558755	       -0.3004071324	        0.0000000000	       -0.0000000000	        0.0000000000	      -10.0739114036	      717.0278698193	      126.9180769660	        0.2029003516	       -0.0000795827	        0.4543649445	     -132.1248301670	       -6.8789401829	       24.0806449265	        2.9533788254	      102.9655117314	       49.2082320183	        0.2076431971	        0.0000770316	        1.3583900146	       12.1238559390	        3.0541852968	       -6.0683740660	
        1.3350000000	       -0.0000000000	        0.0000000000	       -0.0000000000	        0.1988394961	        0.0000558755	       -0.3004071324	        0.0000000000	       -0.0000000000	        0.0000000000	      -10.1808764134	      713.7665277949	      128.0343289110	        0.2029003516	       -0.0000795827	        0.4543649445	     -131.5959957119	       -6.8643742471	       23.9572329482	        2.3708362850	      117.7906667634	       53.8377198648	        0.2076431971	        0.0000770316	        1.3583900146	       13.8399700874	        3.3854842510	       -6.8086164071	
        1.3360000000	       -0.0000000000	        0.0000000000	       -0.0000000000	        0.1988394961	        0.0000558755	       -0.3004071324	        0.0000000000	       -0.0000000000	        0.0000000000	      -10.2938215957	      710.3760160965	      129.1319438286	        0.2029003516	       -0.0000795827	        0.4543649445	     -131.0396963210	       -6.8505530776	       23.8304323408	        1.5330981130	      132.9487211997	       57.6925526363	        0.2076431971	        0.0000770316	        1.3583900146	       15.5803098900	        3.6881302143	       -7.5308947559	
        1.3370000000	       -0.0000000000	        0.0000000000	       -0.0000000000	        0.1988394961	        0.0000558755	       -0.3004071324	        0.0000000000	       -0.0000000000	        0.0000000000	      -10.4112804295	      706.8451222200	      130.2114159614	        0.2029003516	       -0.0000795827	        0.4543649445	     -130.4552620923	       -6.8371213249	       23.6993189227	        0.4331265500	      148.2417662831	       60.5762620061	        0.2076431971	        0.0000770316	        1.3583900146	       17.3186164237	        3.9534038109	       -8.2229158770	
        1.3380000000	       -0.0000000000	        0.0000000000	       -0.0000000000	        0.1988394961	        0.0000558755	       -0.3004071324	        0.0000000000	       -0.0000000000	        0.0000000000	      -10.5315951684	      703.1592594705	      131.2731022865	        0.2029003516	       -0.0000795827	        0.4543649445	     -129.8423348136	       -6.8238494621	       23.5631458640	       -0.9276620503	      163.4552688478	       62.3203629575	        0.2076431971	        0.0000770316	        1.3583900146	       19.0271780479	        4.1738863967	       -8.8722412911	
        1.3390000000	       -0.0000000000	        0.0000000000	       -0.0000000000	        0.1988394961	        0.0000558755	       -0.3004071324	        0.0000000000	       -0.0000000000	        0.0000000000	      -10.6524055967	      699.3030145389	      132.3176012089	        0.2029003516	       -0.0000795827	        0.4543649445	     -129.2006495331	       -6.8107205229	       23.4216648903	       -2.5389703301	      178.3728171141	       62.8039399665	        0.2076431971	        0.0000770316	        1.3583900146	       20.6786541517	        4.3443111238	       -9.4671167207	
